<svg xmlns="http://www.w3.org/2000/svg" viewBox="0 0 600 500" width="600" height="500" fill="none">
  <rect width="600" height="500" fill="#EEF6FF"></rect>
  
  <rect x="60" y="360" width="480" height="16" rx="4" fill="#1447E6"></rect>
  <rect x="80" y="376" width="12" height="80" fill="#1C398E"></rect>
  <rect x="508" y="376" width="12" height="80" fill="#1C398E"></rect>
  
  <rect x="200" y="260" width="200" height="120" rx="8" fill="#FFFFFF" stroke="#A4CAFE" stroke-width="2"></rect>
  <rect x="214" y="274" width="172" height="92" rx="4" fill="#E1EFFE"></rect>
  <rect x="230" y="290" width="80" height="8" rx="2" fill="#1447E6"></rect>
  <rect x="230" y="308" width="140" height="6" rx="2" fill="#A4CAFE"></rect>
  <rect x="230" y="322" width="120" height="6" rx="2" fill="#A4CAFE"></rect>
  <rect x="230" y="336" width="60" height="12" rx="3" fill="#0E9F6E"></rect>
  <rect x="180" y="378" width="240" height="8" rx="4" fill="#1C398E"></rect>
  
  <circle cx="140" cy="240" r="26" fill="#FFE0C2"></circle>
  <path d="M114 240 a26 26 0 0 1 52 0 v-8 a26 20 0 0 0 -52 0z" fill="#1F2937"></path>
  <rect x="108" y="264" width="64" height="88" rx="16" fill="#1447E6"></rect>
  <rect x="120" y="300" width="48" height="60" rx="8" fill="#76A9FA"></rect>
  
  <rect x="156" y="280" width="40" height="14" rx="7" fill="#1447E6"></rect>
  <circle cx="196" cy="287" r="10" fill="#FFE0C2"></circle>
  
  <rect x="430" y="330" width="90" height="14" rx="2" fill="#C70036"></rect>
  <rect x="436" y="316" width="90" height="14" rx="2" fill="#1447E6"></rect>
  <rect x="426" y="302" width="90" height="14" rx="2" fill="#0E9F6E"></rect>
  
  <circle cx="480" cy="120" r="32" fill="#FFFFFF" stroke="#A4CAFE" stroke-width="2"></circle>
  <text x="480" y="130" font-family="Inter, sans-serif" font-size="24" font-weight="800" fill="#1447E6" text-anchor="middle">∑</text>
  <circle cx="430" cy="200" r="24" fill="#FDBA8C"></circle>
  <text x="430" y="208" font-family="Inter, sans-serif" font-size="20" font-weight="800" fill="#FFFFFF" text-anchor="middle">π</text>
  <circle cx="120" cy="140" r="28" fill="#FFFFFF" stroke="#A4CAFE" stroke-width="2"></circle>
  <text x="120" y="149" font-family="Inter, sans-serif" font-size="22" font-weight="800" fill="#1447E6" text-anchor="middle">A+</text>
  
  <path d="M70 80 l4 10 l10 4 l-10 4 l-4 10 l-4 -10 l-10 -4 l10 -4z" fill="#FDBA8C"></path>
  <path d="M540 300 l3 7 l7 3 l-7 3 l-3 7 l-3 -7 l-7 -3 l7 -3z" fill="#A4CAFE"></path>
</svg>